<svg
        width="20"
        height="20"
        xmlns="http://www.w3.org/2000/svg"
        viewBox="0 0 20 20"
>
    <path
            fill="#a2a0a2"
            d="M9.99984 16.666C13.6817 16.666 16.6665 13.6812 16.6665 9.99935C16.6665 6.31745 13.6817 3.33268 9.99984 3.33268C6.31794 3.33268 3.33317 6.31745 3.33317 9.99935C3.33317 13.6812 6.31794 16.666 9.99984 16.666ZM18.3332 9.99935C18.3332 14.6017 14.6022 18.3327 9.99984 18.3327C5.39746 18.3327 1.6665 14.6017 1.6665 9.99935C1.6665 5.39698 5.39746 1.66602 9.99984 1.66602C14.6022 1.66602 18.3332 5.39698 18.3332 9.99935ZM9.99984 8.19047C10.4601 8.19047 10.8332 8.56357 10.8332 9.0238V14.0452C10.8332 14.5054 10.4601 14.8785 9.99984 14.8785C9.5396 14.8785 9.1665 14.5054 9.1665 14.0452V9.0238C9.1665 8.56357 9.5396 8.19047 9.99984 8.19047ZM9.99976 7.00648C10.6116 7.00648 11.1077 6.51045 11.1077 5.89857C11.1077 5.28669 10.6116 4.79066 9.99976 4.79066C9.38787 4.79066 8.89185 5.28669 8.89185 5.89857C8.89185 6.51045 9.38787 7.00648 9.99976 7.00648Z"
    />
</svg>