<svg width="25" height="24" viewBox="0 0 24 24" fill="none" xmlns="http://www.w3.org/2000/svg">
    <path fill-rule="evenodd" clip-rule="evenodd" d="M9.92116 3.31419C10.1361 3.82293 9.89793 4.40959 9.38919 4.62454C6.51437 5.83917 4.5 8.68424 4.5 11.9975C4.5 16.4158 8.08172 19.9975 12.5 19.9975C16.9183 19.9975 20.5 16.4158 20.5 11.9975C20.5 11.4452 20.9477 10.9975 21.5 10.9975C22.0523 10.9975 22.5 11.4452 22.5 11.9975C22.5 17.5203 18.0228 21.9975 12.5 21.9975C6.97715 21.9975 2.5 17.5203 2.5 11.9975C2.5 7.8524 5.02175 4.29863 8.61081 2.78223C9.11955 2.56728 9.70621 2.80545 9.92116 3.31419Z" fill="white"/>
</svg>
