<svg width="24" height="24" viewBox="0 0 24 24" fill="none" xmlns="http://www.w3.org/2000/svg">
    <path fill-rule="evenodd" clip-rule="evenodd" d="M20 12C20 16.4183 16.4183 20 12 20C7.58172 20 4 16.4183 4 12C4 7.58172 7.58172 4 12 4C16.4183 4 20 7.58172 20 12ZM12 22C17.5228 22 22 17.5228 22 12C22 6.47715 17.5228 2 12 2C6.47715 2 2 6.47715 2 12C2 17.5228 6.47715 22 12 22ZM17.405 9.66043C17.792 9.2664 17.7863 8.63326 17.3923 8.24627C16.9982 7.85928 16.3651 7.86498 15.9781 8.25901L10.2407 14.1008L8.02189 11.8417C7.6349 11.4476 7.00176 11.4419 6.60773 11.8289C6.21371 12.2159 6.208 12.849 6.59499 13.2431L9.52722 16.2286C9.71525 16.4201 9.97233 16.5279 10.2407 16.5279C10.509 16.5279 10.7661 16.4201 10.9541 16.2286L17.405 9.66043Z" fill="white"/>
</svg>
